<svg xmlns="http://www.w3.org/2000/svg" width="1600" height="520" viewBox="0 0 1600 520" fill="none">
  <rect width="1600" height="520" rx="56" fill="#0B0F14"/>
  <rect x="24" y="24" width="1552" height="472" rx="40" fill="none" stroke="#161D26" stroke-width="6"/>

  <defs>
    <marker id="arrow" markerWidth="16" markerHeight="16" refX="11" refY="8" orient="auto" markerUnits="userSpaceOnUse">
      <path d="M 0 0 L 16 8 L 0 16 Z" fill="#22D3EE"/>
    </marker>
  </defs>

  <g transform="translate(92 72)">
    <rect x="0" y="0" width="376" height="376" rx="104" fill="#11161D" stroke="#22D3EE" stroke-opacity="0.18" stroke-width="4"/>
    <g stroke="#22D3EE" stroke-width="30" stroke-linecap="round" stroke-linejoin="round" fill="none">
      <path d="M 124 92 V 284"/>
      <path d="M 252 92 V 284"/>
      <path d="M 56 188 H 124" marker-end="url(#arrow)"/>
      <path d="M 124 188 H 252" marker-end="url(#arrow)"/>
      <path d="M 252 188 H 320" marker-end="url(#arrow)"/>
    </g>
    <g fill="#22D3EE">
      <circle cx="56" cy="188" r="16"/>
      <circle cx="320" cy="188" r="16"/>
      <circle cx="124" cy="92" r="12"/>
      <circle cx="124" cy="284" r="12"/>
      <circle cx="252" cy="92" r="12"/>
      <circle cx="252" cy="284" r="12"/>
    </g>
  </g>

  <g transform="translate(560 170)">
    <text x="0" y="0" fill="#22D3EE" font-family="Inter, ui-sans-serif, system-ui, -apple-system, BlinkMacSystemFont, Segoe UI, sans-serif" font-size="96" font-weight="800" letter-spacing="0.28em">HERMES</text>
    <text x="4" y="108" fill="#D8F8FF" fill-opacity="0.94" font-family="Inter, ui-sans-serif, system-ui, -apple-system, BlinkMacSystemFont, Segoe UI, sans-serif" font-size="72" font-weight="700" letter-spacing="0.42em">RELAY</text>
    <path d="M 2 144 H 540" stroke="#22D3EE" stroke-opacity="0.55" stroke-width="6" stroke-linecap="round"/>
    <path d="M 420 144 H 540" stroke="#22D3EE" stroke-width="6" stroke-linecap="round" marker-end="url(#arrow)"/>
  </g>
</svg>
